# xmcd CD database file
#
# Track frame offsets:
#	150
#	11506
#	27705
#	50577
#	75353
#	97259
#	111983
#	124436
#	140764
#	155141
#	178593
#	203726
#	226100
#	243506
#	263945
#	290334
#
# Disc length: 4025 seconds
#
# Revision: 0
# Processed by: cddbd v1.5.2PL0 Copyright (c) Steve Scherf et al.
# Submitted via: CDex 1.51
#
DISCID=eb0fb710
DTITLE=Painted Water - What It Is To Love
DYEAR=2009
DGENRE=New Age
TTITLE0=What It Is To Love
TTITLE1=What It Is To Feel
TTITLE2=Stream
TTITLE3=Shadow Of The Heart
TTITLE4=Dawn Of Spring
TTITLE5=Forgiveness
TTITLE6=A Gentle Touch
TTITLE7=Gone
TTITLE8=Rainy Season
TTITLE9=One Way Love
TTITLE10=Journey Of The Soul
TTITLE11=Lost In Time
TTITLE12=Past The Rain Shadow
TTITLE13=Rising Winds
TTITLE14=Shadow Through Light
TTITLE15=Losing Her
EXTD=YEAR: 2009
EXTT0=
EXTT1=
EXTT2=
EXTT3=
EXTT4=
EXTT5=
EXTT6=
EXTT7=
EXTT8=
EXTT9=
EXTT10=
EXTT11=
EXTT12=
EXTT13=
EXTT14=
EXTT15=
PLAYORDER=
